# File created by Blade
# Date/Time:  Wed Jan 21 19:03:07 2015
# Frame Rate: 120.000 fps
#------------------------------------------------------
:FULLY-SPECIFIED
:DEGREES
1522
root -4.239954 29.447469 -5.263175 117.789828 -8.223327 5.614312
RightUpLeg -117.725203 -21.658587 28.295794
RightLeg -13.718649 -0.000000 0.000000
RightFoot 6.258937 6.557042 46.653128
RightToeBase 22.288930 -0.000000 -0.000000
LeftUpLeg -107.337363 11.165019 -25.239688
LeftLeg -10.807832 -0.000000 0.000000
LeftFoot 3.783495 -11.795058 -27.668054
LeftToeBase 5.845665 -0.000000 -0.000000
Spine 65.290085 -16.123255 0.877878
RightShoulder 6.334581 24.039177 -58.611105
RightArm 43.698576 30.216356 85.107064
RightForeArm 17.222072 -0.000000 109.238653
RightHand 23.454280 -0.000000 -62.884633
RightHandThumb1 -24.326973 -0.000000 -32.862282
LeftShoulder 17.655644 39.427862 13.228672
LeftArm 166.976002 -64.360001 -134.384707
LeftForeArm -8.731101 -0.000000 94.739315
LeftHand -44.205522 -0.000000 76.927775
LeftHandThumb1 -26.253704 0.000000 33.147579
Head 27.338958 5.956289 -34.423415
1523
root -4.232112 29.443015 -5.260001 117.758805 -8.199531 5.641179
RightUpLeg -117.715443 -21.702340 28.348154
RightLeg -13.714068 -0.000000 0.000000
RightFoot 6.283576 6.589226 46.688467
RightToeBase 22.209283 -0.000000 -0.000000
LeftUpLeg -107.303266 11.168861 -25.249240
LeftLeg -10.829488 -0.000000 0.000000
LeftFoot 3.829022 -11.914748 -27.656932
LeftToeBase 5.799052 -0.000000 -0.000000
Spine 65.408928 -16.188048 0.921849
RightShoulder 6.206922 24.000570 -58.924826
RightArm 43.592650 30.315495 85.236089
RightForeArm 17.226265 -0.000000 109.463188
RightHand 23.281285 -0.000000 -62.879736
RightHandThumb1 -24.326973 -0.000000 -32.862282
LeftShoulder 17.619297 39.335265 13.217416
LeftArm 167.010404 -64.402535 -134.531351
LeftForeArm -8.911266 -0.000000 94.839707
LeftHand -43.889518 -0.000000 77.168048
LeftHandThumb1 -26.253704 0.000000 33.147579
Head 27.164676 5.906979 -34.582452
1524
root -4.225121 29.436348 -5.257438 117.727385 -8.167809 5.648968
RightUpLeg -117.662735 -21.746709 28.362085
RightLeg -13.745459 -0.000000 0.000000
RightFoot 6.296357 6.599709 46.794982
RightToeBase 22.306317 -0.000000 -0.000000
LeftUpLeg -107.260182 11.203536 -25.237243
LeftLeg -10.872936 -0.000000 0.000000
LeftFoot 3.866502 -12.010782 -27.630895
LeftToeBase 5.744178 -0.000000 -0.000000
Spine 65.540856 -16.230869 0.909894
RightShoulder 6.126295 24.017699 -59.136271
RightArm 43.489421 30.405717 85.326197
RightForeArm 17.330304 -0.000000 109.659591
RightHand 23.232084 -0.000000 -62.870015
RightHandThumb1 -24.326973 -0.000000 -32.862282
LeftShoulder 17.528600 39.293439 13.124849
LeftArm 167.255169 -64.482947 -134.827694
LeftForeArm -9.061851 0.000000 94.939969
LeftHand -43.820508 -0.000000 77.070583
LeftHandThumb1 -26.253704 0.000000 33.147579
Head 27.015262 5.901080 -34.681140
1525
root -4.218885 29.429344 -5.256488 117.708662 -8.124582 5.648752
RightUpLeg -117.620069 -21.764470 28.389788
RightLeg -13.768493 -0.000000 0.000000
RightFoot 6.290670 6.621354 46.817789
RightToeBase 22.341084 -0.000000 -0.000000
LeftUpLeg -107.260506 11.229537 -25.265199
LeftLeg -10.891637 -0.000000 0.000000
LeftFoot 3.899349 -12.122167 -27.683194
LeftToeBase 5.788825 -0.000000 -0.000000
Spine 65.646219 -16.261860 0.886115
RightShoulder 6.089908 24.056919 -59.260910
RightArm 43.412201 30.475299 85.385993
RightForeArm 17.464649 -0.000000 109.806292
RightHand 23.260842 -0.000000 -62.785921
RightHandThumb1 -24.326973 -0.000000 -32.862282
LeftShoulder 17.445951 39.266317 13.065203
LeftArm 167.425127 -64.501978 -135.083849
LeftForeArm -9.204987 -0.000000 95.080698
LeftHand -43.815743 0.000000 76.936713
LeftHandThumb1 -26.253704 0.000000 33.147579
Head 26.948028 5.951336 -34.717530
1526
root -4.213602 29.422467 -5.256250 117.707390 -8.089120 5.651447
RightUpLeg -117.601851 -21.779474 28.418006
RightLeg -13.781851 -0.000000 0.000000
RightFoot 6.273390 6.632021 46.866144
RightToeBase 22.283897 -0.000000 -0.000000
LeftUpLeg -107.253230 11.258413 -25.246335
LeftLeg -10.927520 -0.000000 0.000000
LeftFoot 3.911466 -12.182654 -27.698829
LeftToeBase 5.733682 -0.000000 -0.000000
Spine 65.725677 -16.291096 0.868507
RightShoulder 6.066634 24.096411 -59.379109
RightArm 43.336881 30.552010 85.459291
RightForeArm 17.550258 -0.000000 109.979945
RightHand 23.220230 -0.000000 -62.675203
RightHandThumb1 -24.326973 -0.000000 -32.862282
LeftShoulder 17.366820 39.250533 13.004801
LeftArm 167.581496 -64.488228 -135.303097
LeftForeArm -9.343517 -0.000000 95.217785
LeftHand -43.809802 -0.000000 76.840453
LeftHandThumb1 -26.253704 0.000000 33.147579
Head 26.888639 5.981126 -34.776260
1527
root -4.208293 29.414959 -5.256360 117.681888 -8.032863 5.663203
RightUpLeg -117.556243 -21.792673 28.482756
RightLeg -13.819778 -0.000000 0.000000
RightFoot 6.256787 6.642680 46.937822
RightToeBase 22.387726 -0.000000 -0.000000
LeftUpLeg -107.226421 11.295534 -25.198073
LeftLeg -10.965091 -0.000000 0.000000
LeftFoot 3.917953 -12.207403 -27.699253
LeftToeBase 5.717771 -0.000000 -0.000000
Spine 65.819929 -16.309874 0.865622
RightShoulder 6.066847 24.142076 -59.463723
RightArm 43.235113 30.642698 85.486317
RightForeArm 17.665277 -0.000000 110.139714
RightHand 23.176995 -0.000000 -62.620143
RightHandThumb1 -24.326973 -0.000000 -32.862282
LeftShoulder 17.281064 39.253257 12.935095
LeftArm 167.741729 -64.421796 -135.467747
LeftForeArm -9.254331 0.000000 95.312803
LeftHand -44.042102 0.000000 76.656968
LeftHandThumb1 -26.253704 0.000000 33.147579
Head 26.888332 6.029316 -34.759972
1528
root -4.202148 29.407616 -5.257848 117.695048 -7.999311 5.676929
RightUpLeg -117.549106 -21.813892 28.512422
RightLeg -13.851755 -0.000000 0.000000
RightFoot 6.250303 6.684202 46.933343
RightToeBase 22.341103 -0.000000 -0.000000
LeftUpLeg -107.231132 11.288754 -25.201378
LeftLeg -11.008684 -0.000000 0.000000
LeftFoot 3.926327 -12.237569 -27.738819
LeftToeBase 5.692395 -0.000000 -0.000000
Spine 65.850599 -16.324178 0.880265
RightShoulder 6.067852 24.129350 -59.517103
RightArm 43.188174 30.706756 85.480959
RightForeArm 17.688844 0.000000 110.268953
RightHand 23.135017 -0.000000 -62.837385
RightHandThumb1 -24.326973 -0.000000 -32.862282
LeftShoulder 17.267589 39.267827 12.904545
LeftArm 167.947150 -64.493856 -135.696579
LeftForeArm -9.624159 -0.000000 95.437216
LeftHand -43.545621 -0.000000 76.548059
LeftHandThumb1 -26.253704 0.000000 33.147579
Head 26.920717 6.054225 -34.758294
1529
root -4.194984 29.400219 -5.258033 117.699177 -7.965776 5.694270
RightUpLeg -117.552252 -21.810550 28.596959
RightLeg -13.895650 -0.000000 0.000000
RightFoot 6.305599 6.736745 47.014842
RightToeBase 22.562547 -0.000000 -0.000000
LeftUpLeg -107.231463 11.275632 -25.225628
LeftLeg -11.045098 -0.000000 0.000000
LeftFoot 3.956273 -12.322392 -27.747059
LeftToeBase 5.694530 -0.000000 -0.000000
Spine 65.900563 -16.353156 0.908281
RightShoulder 6.029182 24.165537 -59.616309
RightArm 43.089428 30.763435 85.509863
RightForeArm 17.756365 -0.000000 110.390285
RightHand 23.212309 -0.000000 -62.738682
RightHandThumb1 -24.326973 -0.000000 -32.862282
LeftShoulder 17.229519 39.267013 12.851584
LeftArm 168.135751 -64.512086 -135.895993
LeftForeArm -9.801620 -0.000000 95.542283
LeftHand -43.441087 0.000000 76.446102
LeftHandThumb1 -26.253704 0.000000 33.147579
Head 26.883782 6.041017 -34.820468
1530
root -4.187925 29.392105 -5.257009 117.690236 -7.936424 5.706728
RightUpLeg -117.540984 -21.801277 28.687232
RightLeg -13.943410 -0.000000 0.000000
RightFoot 6.342494 6.802593 47.020865
RightToeBase 22.618745 -0.000000 -0.000000
LeftUpLeg -107.212486 11.264633 -25.267844
LeftLeg -11.093135 -0.000000 0.000000
LeftFoot 3.975677 -12.412830 -27.746056
LeftToeBase 5.680707 -0.000000 -0.000000
Spine 65.977363 -16.387340 0.928172
RightShoulder 5.972391 24.194881 -59.763953
RightArm 42.987574 30.818201 85.563989
RightForeArm 17.733726 0.000000 110.531686
RightHand 23.109637 -0.000000 -62.778393
RightHandThumb1 -24.326973 -0.000000 -32.862282
LeftShoulder 17.178032 39.223563 12.789787
LeftArm 168.257608 -64.615766 -136.034884
LeftForeArm -10.167385 -0.000000 95.616009
LeftHand -42.950693 0.000000 76.679851
LeftHandThumb1 -26.253704 0.000000 33.147579
Head 26.837407 6.064708 -34.871512
1531
root -4.181898 29.384883 -5.254607 117.646420 -7.900000 5.715236
RightUpLeg -117.468683 -21.811818 28.743042
RightLeg -14.014905 -0.000000 0.000000
RightFoot 6.377591 6.804493 47.103874
RightToeBase 22.657612 -0.000000 -0.000000
LeftUpLeg -107.153550 11.278166 -25.286469
LeftLeg -11.154952 -0.000000 0.000000
LeftFoot 4.000804 -12.475211 -27.731512
LeftToeBase 5.655743 -0.000000 -0.000000
Spine 66.111249 -16.416042 0.947107
RightShoulder 5.861971 24.237873 -59.919852
RightArm 42.921753 30.837269 85.631218
RightForeArm 17.724365 -0.000000 110.657193
RightHand 23.065592 -0.000000 -62.779045
RightHandThumb1 -24.326973 -0.000000 -32.862282
LeftShoulder 17.093873 39.226416 12.737379
LeftArm 168.380972 -64.573730 -136.163458
LeftForeArm -10.228903 -0.000000 95.684942
LeftHand -42.829087 -0.000000 76.688720
LeftHandThumb1 -26.253704 0.000000 33.147579
Head 26.686449 6.038066 -35.000238
1532
root -4.174120 29.378213 -5.251521 117.593626 -7.874056 5.728826
RightUpLeg -117.400356 -21.825314 28.811273
RightLeg -14.089910 -0.000000 0.000000
RightFoot 6.423604 6.817698 47.123807
RightToeBase 22.671784 -0.000000 -0.000000
LeftUpLeg -107.075096 11.281646 -25.299635
LeftLeg -11.223158 -0.000000 0.000000
LeftFoot 4.025668 -12.519451 -27.722334
LeftToeBase 5.625047 -0.000000 -0.000000
Spine 66.262020 -16.472840 0.958134
RightShoulder 5.748270 24.316568 -60.141175
RightArm 42.829705 30.883493 85.757356
RightForeArm 17.807120 -0.000000 110.784094
RightHand 23.186040 0.000000 -62.828756
RightHandThumb1 -24.326973 -0.000000 -32.862282
LeftShoulder 16.947057 39.182903 12.615200
LeftArm 168.392170 -64.533332 -136.152549
LeftForeArm -10.185533 0.000000 95.718729
LeftHand -42.863860 -0.000000 76.780910
LeftHandThumb1 -26.253704 0.000000 33.147579
Head 26.465346 6.008390 -35.199500
1533
root -4.166166 29.371526 -5.247472 117.512265 -7.848122 5.744501
RightUpLeg -117.312486 -21.837602 28.898822
RightLeg -14.172664 -0.000000 0.000000
RightFoot 6.504178 6.862025 47.092681
RightToeBase 22.639133 -0.000000 -0.000000
LeftUpLeg -106.961302 11.305851 -25.279000
LeftLeg -11.289078 -0.000000 0.000000
LeftFoot 3.998090 -12.518344 -27.730343
LeftToeBase 5.704079 -0.000000 -0.000000
Spine 66.459794 -16.546833 0.945285
RightShoulder 5.605631 24.390474 -60.416104
RightArm 42.743486 30.917975 85.937173
RightForeArm 17.856065 -0.000000 110.943424
RightHand 23.148816 -0.000000 -62.759469
RightHandThumb1 -24.326973 -0.000000 -32.862282
LeftShoulder 16.748566 39.149194 12.494753
LeftArm 168.320759 -64.448100 -136.096197
LeftForeArm -10.182123 0.000000 95.780198
LeftHand -42.813808 -0.000000 76.941454
LeftHandThumb1 -26.253704 0.000000 33.147579
Head 26.147242 5.941053 -35.468064
1534
root -4.158785 29.366194 -5.244917 117.455820 -7.826516 5.755026
RightUpLeg -117.261906 -21.841870 28.981248
RightLeg -14.219914 -0.000000 0.000000
RightFoot 6.557410 6.873598 47.212535
RightToeBase 22.774800 -0.000000 -0.000000
LeftUpLeg -106.875843 11.323278 -25.269044
LeftLeg -11.347649 -0.000000 0.000000
LeftFoot 3.997192 -12.531465 -27.809801
LeftToeBase 6.113254 -0.000000 -0.000000
Spine 66.599960 -16.584007 0.959159
RightShoulder 5.541987 24.373465 -60.641509
RightArm 42.672775 31.050209 86.081517
RightForeArm 18.018474 -0.000000 111.118314
RightHand 23.236945 -0.000000 -62.791841
RightHandThumb1 -24.326973 -0.000000 -32.862282
LeftShoulder 16.637408 39.107873 12.427092
LeftArm 168.301171 -64.428405 -136.111154
LeftForeArm -10.256357 -0.000000 95.859216
LeftHand -42.719541 0.000000 76.839737
LeftHandThumb1 -26.253704 0.000000 33.147579
Head 25.971475 5.896190 -35.612966
